<svg width="2249" height="1515" viewBox="0 0 2249 1515" fill="none" xmlns="http://www.w3.org/2000/svg">
<g clip-path="url(#clip0_49_7)">
<path d="M-21.7755 676C-4.20097 669.917 10.1838 666.227 28.9015 666.227C62.8626 666.227 95.3407 663.449 129.17 660.435C159.997 657.688 193.2 667.343 222.56 660.435C234.343 657.662 247.871 656.453 260.025 656.453C279.621 656.453 293.358 649.776 311.607 641.612C333.718 631.72 353.018 617.36 378.935 617.36C400.214 617.36 422.446 608.385 444.815 607.586C468.64 606.735 494.129 587.157 515.763 577.542C534.895 569.038 549.616 548.544 568.612 541.706C586.939 535.108 605.539 535.914 624.718 535.914C639.725 535.914 651.207 528.566 663.993 522.883C705.068 504.627 751.947 489.365 796.115 480.532C810.23 477.709 825.19 474.045 838.286 468.224C845.369 465.076 855.161 459.315 862.9 457.908C884.767 453.932 909.122 453.03 929.504 443.972C958.295 431.176 990.11 413.818 1020.72 412.118C1043.34 410.861 1054.39 389.45 1073.57 382.073C1084.99 377.683 1097.88 366.508 1110.31 366.508C1131.09 366.508 1149.98 372.878 1170.4 376.282C1182.35 378.273 1194.43 386.055 1206.42 386.055C1223.52 386.055 1221.49 391.978 1233.93 399.086C1238.85 401.899 1243.53 409.315 1250.58 412.842C1263.14 419.122 1278.09 421.891 1292.21 421.891C1303.34 421.891 1314.96 419.012 1324.42 418.633C1336.4 418.154 1345.42 425.064 1357.91 420.262C1378.27 412.429 1394.46 412.118 1416.55 412.118C1445.42 412.118 1498.55 398.051 1514.64 373.024C1522.5 360.794 1535.19 352.722 1542.7 340.446C1547.29 332.93 1560.3 330.552 1564.78 322.709C1568.97 315.374 1596.01 308.428 1603.87 304.61C1615.95 298.745 1624.9 288.605 1636.45 282.529C1645.2 277.925 1653.11 273.008 1660.88 266.964C1670.28 259.658 1674.98 246.496 1685.32 240.178C1714.11 222.583 1752.09 226.423 1786.31 226.423C1798.31 226.423 1808.69 229.68 1820.51 229.68C1838.14 229.68 1856.84 218.941 1874.27 215.925C1904.53 210.688 1939.59 215.627 1968.93 224.794C1987.52 230.606 2011.32 234.427 2030.82 236.377C2040.08 237.303 2071.21 245.139 2075.53 252.485C2080.95 261.698 2082.6 268.602 2090.91 276.919C2102.48 288.481 2118.31 297.965 2133.26 304.61C2143.34 309.087 2154.41 312.017 2164.21 316.917C2171.35 320.486 2176.69 328.315 2183.76 330.672" stroke="#E7E7E7" stroke-width="3" stroke-linecap="round"/>
<path d="M0.693726 605.87C10.5823 616.995 40.0545 598.104 56.1428 596.365C69.2459 594.948 81.8051 592.706 95.0451 593.196C100.694 593.406 104.687 598.175 110.008 599.357C136.808 605.313 167.197 605.87 194.677 605.87C204.802 605.87 214.753 602.702 224.074 602.702C236.514 602.702 259.911 600.015 271.426 594.781C292.879 585.029 327.325 578.011 350.991 577.354C383.662 576.446 417.127 576.414 445.518 556.758C469.318 540.281 505.165 536.265 526.667 517.152C546.429 499.586 578.289 486.208 603.064 479.13C617.111 475.116 631.578 477.786 645.311 472.793C658.488 468.001 670.703 459.473 683.509 453.782C699.328 446.751 721.883 442.78 735.085 430.898C746.373 420.739 765.896 419.339 776.98 409.422C791.797 396.165 817.213 385.908 835.598 377.737C854.625 369.28 883.827 381.612 901.256 368.936C907.635 364.297 928.785 363.531 936.814 362.071C950.764 359.534 962.172 351.898 975.012 349.045C998.009 343.934 1028.16 332.643 1049.47 323.168C1067.33 315.233 1080.78 298.648 1098.76 288.843C1114.93 280.023 1133.88 260.502 1154.03 260.502C1177.86 260.502 1190.46 262.709 1211.07 272.472C1248.99 290.437 1291.38 312.665 1333.93 314.367C1352.9 315.126 1376.96 320.478 1396.6 324.049C1410.38 326.554 1444.3 333.73 1455.75 324.577C1459.63 321.47 1485.32 320.704 1491.48 320.704C1498.59 320.704 1508.38 310.912 1513.84 306.446C1527.55 295.228 1543.21 288.157 1555.73 275.641C1572.4 258.969 1584.01 244.172 1603.79 230.577C1623.78 216.835 1651.36 201.62 1675.08 197.308C1700.84 192.623 1726.01 178.121 1752.88 178.121C1773.45 178.121 1793.33 168.615 1814.85 168.615C1835.52 168.615 1851.65 155.941 1873.29 155.941C1883.52 155.941 1891.59 155.464 1900.39 152.949C1909.59 150.322 1917.98 144.222 1928.74 146.612C1939.76 149.062 1950.27 157.875 1962.01 159.11C1969.29 159.876 1988.87 166.659 1994.39 171.08C2000.85 176.245 2027.37 178.121 2034.7 178.121C2045.06 178.121 2054.24 181.289 2064.98 181.289C2089.63 181.289 2104.39 186.019 2121.13 202.765C2126.98 208.607 2130.35 216.476 2136.98 221.776C2143.94 227.344 2153.54 229.764 2161.62 235.154" stroke="#E7E7E7" stroke-width="3" stroke-linecap="round"/>
</g>
<defs>
<clipPath id="clip0_49_7">
<rect width="2249" height="1515" fill="white"/>
</clipPath>
</defs>
</svg>
